<svg width="18" height="18" viewBox="0 0 18 18" fill="none" xmlns="http://www.w3.org/2000/svg">
<path d="M15.3 0H2.7C1.215 0 0 1.215 0 2.7V15.3C0 16.785 1.215 18 2.7 18H15.3C16.785 18 18 16.785 18 15.3V2.7C18 1.215 16.785 0 15.3 0ZM13.014 7.389L8.514 11.889C8.334 12.06 8.109 12.15 7.875 12.15C7.641 12.15 7.416 12.06 7.236 11.889L4.986 9.639C4.635 9.288 4.635 8.712 4.986 8.361C5.337 8.01 5.913 8.01 6.264 8.361L7.875 9.981L11.736 6.111C12.087 5.76 12.663 5.76 13.014 6.111C13.365 6.462 13.365 7.038 13.014 7.389Z" fill="white"/>
</svg>
