<svg width="78" height="77" viewBox="0 0 78 77" fill="none" xmlns="http://www.w3.org/2000/svg">
<path d="M41.6016 71C61.2077 71 77.1016 55.1061 77.1016 35.5C77.1016 15.8939 61.2077 0 41.6016 0C21.9955 0 6.10156 15.8939 6.10156 35.5C6.10156 55.1061 21.9955 71 41.6016 71Z" fill="#E7344C"/>
<path d="M51.0496 61.482V77H3.4768V64.704L24.9312 44.8608C26.7968 43.1083 28.0405 41.6101 28.6624 40.3664C29.2843 39.1227 29.5952 37.9072 29.5952 36.72C29.5952 35.2501 29.0864 34.1195 28.0688 33.328C27.1077 32.48 25.6944 32.056 23.8288 32.056C22.0197 32.056 20.3237 32.5365 18.7408 33.4976C17.1579 34.4587 15.9424 35.8155 15.0944 37.568L0 30.0208C2.2613 25.7808 5.5685 22.4453 9.9216 20.0144C14.2747 17.5269 19.5323 16.2832 25.6944 16.2832C30.3867 16.2832 34.5419 17.0464 38.16 18.5728C41.7781 20.0992 44.6048 22.2757 46.64 25.1024C48.6752 27.9291 49.6928 31.1797 49.6928 34.8544C49.6928 38.1333 48.9861 41.2144 47.5728 44.0976C46.216 46.9243 43.5307 50.147 39.5168 53.765L31.0368 61.482H51.0496Z" fill="#FBBA06"/>
<path fill-rule="evenodd" clip-rule="evenodd" d="M9.54449 20.2277C9.66869 20.1559 9.79378 20.0848 9.91978 20.0144C14.2729 17.5269 19.5305 16.2832 25.6926 16.2832C30.3849 16.2832 34.5401 17.0464 38.1582 18.5728C41.7763 20.0992 44.603 22.2757 46.6382 25.1024C48.6734 27.9291 49.691 31.1797 49.691 34.8544C49.691 38.1333 48.9843 41.2144 47.571 44.0976C46.2142 46.9243 43.5289 50.147 39.515 53.765L31.035 61.482H51.0478V69.729C48.0398 70.558 44.8719 71 41.6006 71C29.6976 71 19.1628 65.142 12.7221 56.151L24.9294 44.8608C26.795 43.1083 28.0387 41.6101 28.6606 40.3664C29.2825 39.1227 29.5934 37.9072 29.5934 36.72C29.5934 35.2501 29.0846 34.1195 28.067 33.328C27.1059 32.48 25.6926 32.056 23.827 32.056C22.0179 32.056 20.3219 32.5365 18.739 33.4976C17.1561 34.4587 15.9406 35.8155 15.0926 37.568L6.17969 33.1115C6.48449 28.5239 7.66079 24.1746 9.54449 20.2277Z" fill="#6D3E91"/>
</svg>
