<svg width="34" height="35" viewBox="0 0 34 35" fill="none" xmlns="http://www.w3.org/2000/svg">
<path fill-rule="evenodd" clip-rule="evenodd" d="M22.7995 0.51916C22.5406 0.0727988 21.9978 -0.112338 21.5383 0.0890502L17.3891 1.90785C17.1408 2.01672 16.8569 2.01568 16.6043 1.90497L12.4533 0.0853845C11.9956 -0.115272 11.4701 0.0543175 11.2215 0.482957L8.84862 4.57392C8.7169 4.801 8.50096 4.96378 8.24794 5.02672L3.80399 6.13215C3.34203 6.24707 3.03415 6.68287 3.07191 7.16841L3.4466 11.9856C3.46678 12.2451 3.38782 12.5002 3.22618 12.6976L0.225356 16.3637C-0.0771021 16.7332 -0.0720771 17.2757 0.237305 17.6537L3.21348 21.2897C3.38294 21.4967 3.46648 21.7616 3.44587 22.0266L3.07458 26.8001C3.03568 27.3003 3.36581 27.7617 3.84851 27.8817L8.22573 28.9706C8.49205 29.0368 8.72229 29.2111 8.86226 29.4524L11.2005 33.4837C11.4594 33.93 12.0023 34.1151 12.4617 33.9138L16.6109 32.095C16.8593 31.9861 17.1431 31.9871 17.3957 32.0978L21.5467 33.9174C22.0045 34.1181 22.5299 33.9485 22.7785 33.5199L25.1514 29.4289C25.2831 29.2018 25.4991 29.039 25.7521 28.9761L30.196 27.8707C30.658 27.7557 30.9659 27.3199 30.9281 26.8344L30.5534 22.0172C30.5332 21.7577 30.6122 21.5026 30.7738 21.3052L33.7747 17.6391C34.0771 17.2696 34.0721 16.7271 33.7627 16.3491L30.7865 12.7132C30.6171 12.5061 30.5335 12.2412 30.5541 11.9763L30.9254 7.20269C30.9643 6.70252 30.6342 6.24115 30.1515 6.12108L25.7743 5.03225C25.508 4.966 25.2777 4.79171 25.1378 4.55041L22.7995 0.51916ZM24.579 14.1335C25.1879 13.5717 25.226 12.6227 24.6642 12.0139C24.1025 11.405 23.1535 11.3668 22.5446 11.9286L14.9436 18.942L11.6517 15.9046C11.0429 15.3428 10.0939 15.3809 9.53214 15.9898C8.97036 16.5986 9.00852 17.5476 9.61737 18.1094L13.9265 22.0853C14.501 22.6155 15.3863 22.6155 15.9608 22.0853L24.579 14.1335Z" fill="#F07D00"/>
</svg>
